name C:\Users\u0101727\Documents\MyRepositories\upper-imu-dc\Results\main_tracking\Case_42\kinematics.mot
datacolumns 10
datarows 23
range 5.00000000 5.22000000
endheader 
time	clav_prot	clav_elev	scapula_abduction	scapula_elevation	scapula_upward_rot	scapula_winging	plane_elv	shoulder_elv	axial_rot	
          5.00000000	        -22.59419897	          2.78598102	          0.30746782	         -3.47537961	         34.76214249	         -1.91997866	         69.68135586	         45.92715641	        -22.93586303	
          5.01000000	        -22.55677615	          2.58976133	         -0.05855187	         -3.50926778	         34.12304378	         -1.73538240	         69.44468240	         45.44099480	        -22.73805396	
          5.02000000	        -22.52578068	          2.38463217	         -0.42665309	         -3.54890182	         33.48914158	         -1.54734533	         69.18391989	         44.96203861	        -22.54599160	
          5.03000000	        -22.46225586	          2.16370869	         -0.72842681	         -3.59657249	         32.85721579	         -1.35436169	         68.89951122	         44.49402375	        -22.36017450	
          5.04000000	        -22.47412471	          1.94131436	         -1.15966060	         -3.64797004	         32.22608568	         -1.15719085	         68.60064201	         44.04095440	        -22.18179995	
          5.05000000	        -22.45555403	          1.70797744	         -1.52885685	         -3.70434253	         31.59804339	         -0.95644464	         68.28828076	         43.60122588	        -22.00953822	
          5.06000000	        -22.44213152	          1.46625704	         -1.89437443	         -3.76726040	         30.98018957	         -0.75355458	         67.96188028	         43.16876741	        -21.84343492	
          5.07000000	        -22.43516125	          1.21580983	         -2.25475732	         -3.83814523	         30.37763508	         -0.54960201	         67.62121425	         42.73942888	        -21.68231312	
          5.08000000	        -22.43619275	          0.95629413	         -2.60863960	         -3.91860339	         29.79609328	         -0.34580863	         67.26620053	         42.30846171	        -21.52468324	
          5.09000000	        -22.44622342	          0.68733955	         -2.95379458	         -4.01028533	         29.24126437	         -0.14339839	         66.89692529	         41.87105825	        -21.36845094	
          5.10000000	        -22.46644425	          0.40857914	         -3.28832757	         -4.11492883	         28.71900765	          0.05638925	         66.51358309	         41.42212319	        -21.21099254	
          5.11000000	        -22.49796550	          0.11960891	         -3.61022572	         -4.23434998	         28.23527305	          0.25233443	         66.11639467	         40.95627270	        -21.04922383	
          5.12000000	        -22.54231803	         -0.18000334	         -3.91815244	         -4.37047482	         27.79620768	          0.44324194	         65.70551166	         40.46766015	        -20.87978490	
          5.13000000	        -22.59931947	         -0.49084478	         -4.20801003	         -4.52519820	         27.40766817	          0.62804832	         65.28087341	         39.95035895	        -20.69907168	
          5.14000000	        -22.67708468	         -0.81310618	         -4.48935376	         -4.70088792	         27.07694169	          0.80556681	         64.84220871	         39.39661639	        -20.50390714	
          5.15000000	        -22.74046330	         -1.14780836	         -4.70010911	         -4.89680276	         26.80549958	          0.97510438	         64.38908007	         38.80381857	        -20.28991482	
          5.16000000	        -22.66459674	         -1.49232375	         -4.65253323	         -5.09570223	         26.55291415	          1.14200631	         63.92015195	         38.21016656	        -20.05455629	
          5.17000000	        -22.70830512	         -1.80421005	         -4.84999064	         -5.26968807	         26.26163835	          1.31365904	         63.44570521	         37.67179779	        -19.79236387	
          5.18000000	        -22.68297392	         -2.09988279	         -4.95281408	         -5.42140079	         25.94002007	          1.48691165	         62.96780882	         37.17808537	        -19.50176892	
          5.19000000	        -22.65853982	         -2.37519579	         -5.07895980	         -5.55306835	         25.59467829	          1.66056720	         62.48570756	         36.72112821	        -19.18165634	
          5.20000000	        -22.63549327	         -2.63172420	         -5.22490676	         -5.66680656	         25.23075124	          1.83358584	         61.99858287	         36.29482663	        -18.83090873	
          5.21000000	        -22.61498419	         -2.87106407	         -5.38836355	         -5.76481603	         24.85338914	          2.00504991	         61.50539097	         35.89345441	        -18.44933831	
          5.22000000	        -22.59717087	         -3.09488844	         -5.56570294	         -5.84923428	         24.46728516	          2.17421282	         61.00488562	         35.51201215	        -18.03752022	
